ffmpeg version 3.4.8-0ubuntu0.2 Copyright (c) 2000-2020 the FFmpeg developers
  built with gcc 7 (Ubuntu 7.5.0-3ubuntu1~18.04)
  configuration: --prefix=/usr --extra-version=0ubuntu0.2 --toolchain=hardened --libdir=/usr/lib/x86_64-linux-gnu --incdir=/usr/include/x86_64-linux-gnu --enable-gpl --disable-stripping --enable-avresample --enable-avisynth --enable-gnutls --enable-ladspa --enable-libass --enable-libbluray --enable-libbs2b --enable-libcaca --enable-libcdio --enable-libflite --enable-libfontconfig --enable-libfreetype --enable-libfribidi --enable-libgme --enable-libgsm --enable-libmp3lame --enable-libmysofa --enable-libopenjpeg --enable-libopenmpt --enable-libopus --enable-libpulse --enable-librubberband --enable-librsvg --enable-libshine --enable-libsnappy --enable-libsoxr --enable-libspeex --enable-libssh --enable-libtheora --enable-libtwolame --enable-libvorbis --enable-libvpx --enable-libwavpack --enable-libwebp --enable-libx265 --enable-libxml2 --enable-libxvid --enable-libzmq --enable-libzvbi --enable-omx --enable-openal --enable-opengl --enable-sdl2 --enable-libdc1394 --enable-libdrm --enable-libiec61883 --enable-chromaprint --enable-frei0r --enable-libopencv --enable-libx264 --enable-shared
  libavutil      55. 78.100 / 55. 78.100
  libavcodec     57.107.100 / 57.107.100
  libavformat    57. 83.100 / 57. 83.100
  libavdevice    57. 10.100 / 57. 10.100
  libavfilter     6.107.100 /  6.107.100
  libavresample   3.  7.  0 /  3.  7.  0
  libswscale      4.  8.100 /  4.  8.100
  libswresample   2.  9.100 /  2.  9.100
  libpostproc    54.  7.100 / 54.  7.100
[rawvideo @ 0x557ee68c8a20] Estimating duration from bitrate, this may be inaccurate
Input #0, rawvideo, from '../../SVC-Encoder-20220109T061506Z-001/SVC-Encoder/Dataset/RollerCoaster/ERP_8x8/tile_yuv/Tile_33_480x240.yuv':
  Duration: 00:00:10.00, start: 0.000000, bitrate: 41472 kb/s
    Stream #0:0: Video: rawvideo (I420 / 0x30323449), yuv420p, 480x240, 41472 kb/s, 30 tbr, 30 tbn, 30 tbc
Stream mapping:
  Stream #0:0 -> #0:0 (rawvideo (native) -> h264 (libx264))
Press [q] to stop, [?] for help
[libx264 @ 0x557ee68d5c60] using cpu capabilities: MMX2 SSE2Fast LZCNT SSSE3 SSE4.2 AVX
[libx264 @ 0x557ee68d5c60] profile High, level 2.1
Output #0, rawvideo, to 'RollerCoaster_Tile_33_480x240_x264_QP_24.h264':
  Metadata:
    encoder         : Lavf57.83.100
    Stream #0:0: Video: h264 (libx264), yuv420p, 480x240, q=-1--1, 30 fps, 30 tbn, 30 tbc
    Metadata:
      encoder         : Lavc57.107.100 libx264
    Side data:
      cpb: bitrate max/min/avg: 0/0/0 buffer size: 0 vbv_delay: -1
frame=  128 fps=0.0 q=30.0 PSNR=Y:nan U:nan V:nan *:nan size=     168kB time=00:00:02.83 bitrate= 487.0kbits/s speed=5.63x    frame=  239 fps=238 q=30.0 PSNR=Y:nan U:nan V:nan *:nan size=     256kB time=00:00:06.53 bitrate= 321.0kbits/s speed=6.51x    frame=  300 fps=211 q=30.0 LPSNR=Y:inf U:inf V:inf *:inf size=     539kB time=00:00:09.93 bitrate= 444.8kbits/s speed=6.98x    
video:539kB audio:0kB subtitle:0kB other streams:0kB global headers:0kB muxing overhead: 0.000000%
[libx264 @ 0x557ee68d5c60] frame I:2     Avg QP:21.53  size: 24180  PSNR Mean Y:43.90 U:48.94 V:50.79 Avg:45.13 Global:45.09
[libx264 @ 0x557ee68d5c60] frame P:76    Avg QP:23.49  size:  5324  PSNR Mean Y:40.30 U:47.99 V:49.80 Avg:41.77 Global:41.68
[libx264 @ 0x557ee68d5c60] frame B:222   Avg QP:29.42  size:   447  PSNR Mean Y:39.57 U:47.68 V:49.60 Avg:41.07 Global:41.01
[libx264 @ 0x557ee68d5c60] consecutive B-frames:  1.3%  0.0%  0.0% 98.7%
[libx264 @ 0x557ee68d5c60] mb I  I16..4:  0.4% 72.4% 27.1%
[libx264 @ 0x557ee68d5c60] mb P  I16..4:  0.0%  0.0%  0.0%  P16..4: 37.1% 31.1% 24.8%  0.0%  0.0%    skip: 7.0%
[libx264 @ 0x557ee68d5c60] mb B  I16..4:  0.0%  0.0%  0.0%  B16..8: 52.8%  5.9%  0.3%  direct: 0.3%  skip:40.7%  L0:40.5% L1:45.8% BI:13.6%
[libx264 @ 0x557ee68d5c60] 8x8 transform intra:71.9% inter:61.9%
[libx264 @ 0x557ee68d5c60] coded y,uvDC,uvAC intra: 98.0% 95.0% 60.6% inter: 16.1% 8.5% 0.0%
[libx264 @ 0x557ee68d5c60] i16 v,h,dc,p: 33% 17% 17% 33%
[libx264 @ 0x557ee68d5c60] i8 v,h,dc,ddl,ddr,vr,hd,vl,hu:  6% 11% 12%  6% 15%  6% 19% 16%  9%
[libx264 @ 0x557ee68d5c60] i4 v,h,dc,ddl,ddr,vr,hd,vl,hu:  7% 11% 10%  6% 15%  7% 22% 15%  8%
[libx264 @ 0x557ee68d5c60] i8c dc,h,v,p: 43% 23% 15% 19%
[libx264 @ 0x557ee68d5c60] Weighted P-Frames: Y:1.3% UV:0.0%
[libx264 @ 0x557ee68d5c60] ref P L0: 65.2% 19.0% 13.9%  1.9%  0.0%
[libx264 @ 0x557ee68d5c60] ref B L0: 93.4%  6.2%  0.4%
[libx264 @ 0x557ee68d5c60] ref B L1: 93.9%  6.1%
[libx264 @ 0x557ee68d5c60] PSNR Mean Y:39.787 U:47.767 V:49.658 Avg:41.270 Global:41.193 kb/s:441.84
